<?xml version="1.0" encoding="utf-8"?>
<!-- Generator: Adobe Illustrator 24.0.2, SVG Export Plug-In . SVG Version: 6.00 Build 0)  -->
<svg version="1.1" id="Camada_1" xmlns="http://www.w3.org/2000/svg" xmlns:xlink="http://www.w3.org/1999/xlink" x="0px" y="0px"
	 viewBox="0 0 962.6 303.8" style="enable-background:new 0 0 962.6 303.8;" xml:space="preserve">
<style type="text/css">
	.st0{fill:#FD5960;}
	.st1{fill:#0054C7;}
</style>
<g>
	<g>
		<g>
			<path class="st0" d="M236.6,275.9c-1.5-0.7-3.5-1.5-6.1-2.3c-1.9-0.6-3.4-1.2-4.4-1.6c-1-0.4-1.8-1-2.4-1.6
				c-0.5-0.6-0.8-1.3-0.8-2.2c0-0.7,0.2-1.3,0.8-1.8c0.6-0.6,1.3-1,2.3-1.4c2.4-0.8,5-0.5,6.8,0c1.1,0.3,2,0.6,2.6,1
				c0.7,0.4,1.6,1,2.5,1.7c0.2,0.2,0.5,0.2,0.8,0.2c0.3-0.1,0.5-0.2,0.7-0.5l2.4-3.8c0.3-0.5,0.2-1.1-0.3-1.4
				c-2-1.4-3.9-2.5-5.8-3.2c-1.9-0.7-4.2-1-6.8-1c-2.2,0-4.3,0.4-6.3,1.2c-2,0.8-3.6,2-4.8,3.5c-1.2,1.6-1.8,3.4-1.8,5.6
				c0,2.3,0.6,4.2,1.8,5.7c1.1,1.4,2.5,2.5,4.2,3.3c1.5,0.7,3.5,1.5,6,2.4c1.9,0.6,3.4,1.2,4.5,1.7c1,0.4,1.8,1,2.5,1.7
				c0.6,0.6,0.8,1.3,0.8,2.2c0,1.6-0.6,2.8-1.8,3.6c-1.3,0.9-3,1.4-5.2,1.4c-1.7,0-3.4-0.3-5-1c-1.7-0.7-3.3-1.5-4.9-2.5
				c-0.5-0.3-1.1-0.2-1.4,0.3l-2.5,3.9c-0.3,0.5-0.2,1.1,0.3,1.4c1.9,1.3,4,2.4,6.1,3.2c0,0,0,0,0,0c2.2,0.8,4.7,1.2,7.4,1.2
				c2.4,0,4.7-0.4,6.8-1.3c2.1-0.9,3.9-2.2,5.1-3.9c1.3-1.8,2-3.9,2-6.4c0-2.4-0.6-4.4-1.8-5.9C239.7,277.8,238.3,276.7,236.6,275.9
				z"/>
			<path class="st0" d="M300,258.2h-4.8c-0.6,0-1,0.5-1,1v36.2c0,0.6,0.5,1,1,1h4.8c0.6,0,1-0.5,1-1v-36.2
				C301,258.7,300.5,258.2,300,258.2z"/>
			<path class="st0" d="M374.2,275.9c-1.5-0.7-3.5-1.5-6.1-2.3c-1.9-0.6-3.4-1.2-4.4-1.6c-1-0.4-1.8-1-2.4-1.6
				c-0.6-0.6-0.8-1.3-0.8-2.2c0-0.7,0.2-1.3,0.8-1.8c0.6-0.6,1.3-1,2.3-1.4c2.4-0.8,5-0.5,6.8,0c1.1,0.3,2,0.6,2.6,1
				c0.7,0.4,1.6,1,2.5,1.7c0.2,0.2,0.5,0.2,0.8,0.2c0.3-0.1,0.5-0.2,0.7-0.5l2.4-3.8c0.3-0.5,0.2-1.1-0.3-1.4
				c-2-1.4-3.9-2.5-5.8-3.2c-1.9-0.7-4.2-1-6.8-1c-2.2,0-4.3,0.4-6.3,1.2c-2,0.8-3.6,2-4.8,3.5c-1.2,1.6-1.8,3.4-1.8,5.6
				c0,2.3,0.6,4.2,1.8,5.7c1.1,1.4,2.5,2.6,4.2,3.3c1.5,0.7,3.5,1.5,6,2.4c1.9,0.6,3.4,1.2,4.5,1.7c1,0.4,1.8,1,2.5,1.7
				c0.6,0.6,0.8,1.3,0.8,2.2c0,1.6-0.6,2.8-1.8,3.6c-1.3,0.9-3,1.4-5.2,1.4c-1.7,0-3.4-0.3-5-1c-1.7-0.7-3.3-1.5-4.9-2.5
				c-0.5-0.3-1.1-0.2-1.4,0.3l-2.5,3.9c-0.3,0.5-0.2,1.1,0.3,1.4c1.9,1.3,4,2.4,6.1,3.2c0,0,0,0,0,0c2.2,0.8,4.7,1.2,7.4,1.2
				c2.4,0,4.7-0.4,6.8-1.3c2.1-0.9,3.9-2.2,5.1-3.9c1.3-1.8,2-3.9,2-6.4c0-2.4-0.6-4.4-1.8-5.9C377.3,277.8,375.8,276.7,374.2,275.9
				z"/>
			<path class="st0" d="M456.4,258.2h-25.5c-0.6,0-1,0.5-1,1v4.2c0,0.6,0.5,1,1,1h9.3v30.9c0,0.6,0.5,1,1,1h4.8c0.6,0,1-0.5,1-1
				v-30.9h9.3c0.6,0,1-0.5,1-1v-4.2C457.5,258.7,457,258.2,456.4,258.2z"/>
			<path class="st0" d="M532.8,258.2h-24.1c-0.6,0-1,0.5-1,1v36.2c0,0.6,0.5,1,1,1h24.1c0.6,0,1-0.5,1-1v-4.2c0-0.6-0.5-1-1-1h-18.2
				v-8.9h17c0.6,0,1-0.5,1-1V276c0-0.6-0.5-1-1-1h-17v-10.5h18.2c0.6,0,1-0.5,1-1v-4.2C533.8,258.7,533.3,258.2,532.8,258.2z"/>
			<path class="st0" d="M619.3,258.2h-4.9c-0.4,0-0.7,0.2-0.9,0.5l-10.4,18.1l-10.4-18.1c-0.2-0.3-0.5-0.5-0.9-0.5h-4.9
				c-0.6,0-1,0.5-1,1v36.2c0,0.6,0.5,1,1,1h4.8c0.6,0,1-0.5,1-1v-23.2l8.5,14.7c0.2,0.3,0.5,0.5,0.9,0.5h2.1c0.4,0,0.7-0.2,0.9-0.5
				l8.5-14.7v23.2c0,0.6,0.5,1,1,1h4.8c0.6,0,1-0.5,1-1v-36.2C620.3,258.7,619.9,258.2,619.3,258.2z"/>
			<path class="st0" d="M691.7,258.2h-5.5c-0.4,0-0.8,0.3-1,0.6L670.6,295c-0.1,0.3-0.1,0.7,0.1,1c0.2,0.3,0.5,0.5,0.9,0.5h5.1
				c0.4,0,0.8-0.3,1-0.6l3.3-8.2h15.9l3.3,8.2c0.2,0.4,0.5,0.6,1,0.6h5.3c0.3,0,0.7-0.2,0.9-0.5c0.2-0.3,0.2-0.6,0.1-1l-14.7-36.2
				C692.5,258.5,692.1,258.2,691.7,258.2z M694.4,281.4h-10.8L689,268L694.4,281.4z"/>
			<path class="st0" d="M783,279.3c-1.2-1.5-2.6-2.6-4.2-3.4c-1.5-0.7-3.5-1.5-6.1-2.3c-1.9-0.6-3.4-1.2-4.4-1.6
				c-1-0.4-1.8-1-2.4-1.6c-0.5-0.6-0.8-1.3-0.8-2.2c0-0.7,0.2-1.3,0.8-1.8c0.6-0.6,1.3-1,2.3-1.3c2.4-0.8,5-0.5,6.8,0
				c1.1,0.3,2,0.6,2.6,1c0.7,0.4,1.6,1,2.5,1.7c0.2,0.2,0.5,0.2,0.8,0.2c0.3-0.1,0.5-0.2,0.7-0.5l2.4-3.8c0.3-0.5,0.2-1.1-0.3-1.4
				c-2-1.4-3.9-2.5-5.8-3.2c-1.9-0.7-4.2-1-6.8-1c-2.2,0-4.3,0.4-6.3,1.2c-2,0.8-3.6,2-4.8,3.5c-1.2,1.6-1.8,3.4-1.8,5.6
				c0,2.3,0.6,4.2,1.8,5.7c1.1,1.4,2.5,2.6,4.2,3.3c1.5,0.7,3.6,1.5,6,2.4c1.9,0.6,3.4,1.2,4.5,1.7c1,0.4,1.8,1,2.5,1.7
				c0.6,0.6,0.8,1.3,0.8,2.2c0,1.6-0.6,2.8-1.8,3.6c-1.3,0.9-3,1.4-5.2,1.4c-1.7,0-3.4-0.3-5-1c-1.7-0.7-3.3-1.5-4.9-2.5
				c-0.5-0.3-1.1-0.2-1.4,0.3l-2.5,3.9c-0.3,0.5-0.2,1.1,0.3,1.4c1.9,1.3,4,2.4,6.1,3.2c0,0,0,0,0,0c2.2,0.8,4.7,1.2,7.4,1.2
				c2.4,0,4.7-0.4,6.8-1.3c2.1-0.9,3.9-2.2,5.1-3.9c1.3-1.8,2-3.9,2-6.4C784.9,282.8,784.2,280.8,783,279.3z"/>
		</g>
	</g>
	<path class="st1" d="M60.9,92.4c6.8-4,14.3-6,22.7-6c6.8,0,13.7,2,20.7,5.9c5.8,3.3,10.6,7.2,14.2,11.9c1.2,1.5,3.5,1.7,5.1,0.5
		l19.2-14.6c3.3-2.5,3.6-5,2.2-6.5c-4.1-4.7-9.1-9-14.9-13c-7-4.8-14.7-8.5-23.1-11.3c-8.4-2.7-16.8-4.1-25.3-4.1
		c-13.9,0-26.8,3.4-38.6,10.2c-11.8,6.8-21.2,16.1-28.2,27.9c-7,11.8-10.4,24.9-10.4,39.3c0,19.9,7,37.3,20.9,52.2
		c2.3,2.5,4.8,4.7,7.4,6.8c14.5,11.2,30.8,16.8,48.8,16.8c8.5,0,17-1.3,25.3-4c8.4-2.7,16-6.4,22.9-11c5.7-3.8,10.6-8,14.5-12.6
		c1.4-1.6,1-4-0.6-5.3l-20.8-15.8c-1.5-1.2-3.8-1-5,0.5c-3.6,4.4-8.3,8.2-14.1,11.3c-7,3.8-13.7,5.6-20.2,5.6
		c-8.4,0-15.9-1.9-22.7-5.8c-6.8-3.9-12.1-9.2-15.9-15.9c-3.9-6.8-5.8-14.3-5.8-22.7c0-8.6,1.9-16.5,5.8-23.5
		C48.8,102,54.1,96.4,60.9,92.4z"/>
	<path class="st1" d="M277.9,65c-11.9-6.6-25.3-9.9-40.2-9.9c-15,0-28.4,3.3-40.4,9.9c-12,6.6-21.3,15.7-28.1,27.3
		c-6.7,11.6-10.1,24.7-10.1,39.3c0,14.6,3.4,27.7,10.1,39.3c6.7,11.6,16.1,20.8,28.1,27.4c12,6.6,25.4,9.9,40.4,9.9
		c14.9,0,28.4-3.3,40.2-9.9c11.9-6.6,21.2-15.7,27.9-27.4c6.7-11.7,10.1-24.8,10.1-39.3c0-14.6-3.4-27.7-10.1-39.3
		C299.1,80.7,289.8,71.6,277.9,65z M275.5,154.9c-3.7,6.9-8.9,12.3-15.5,16.2c-6.6,3.9-14.1,5.9-22.3,5.9c-8.4,0-15.9-2-22.5-5.9
		c-6.6-3.9-11.8-9.3-15.6-16.2c-3.8-6.9-5.6-14.7-5.6-23.3c0-8.6,1.9-16.4,5.6-23.3c3.8-6.9,9-12.2,15.6-16.1
		c6.6-3.8,14.1-5.8,22.5-5.8c8.3,0,15.7,1.9,22.3,5.8c6.6,3.9,11.8,9.2,15.5,16.1c3.7,6.9,5.6,14.6,5.6,23.3
		C281.1,140.2,279.3,148,275.5,154.9z"/>
	<path class="st1" d="M401.3,56.8c-8.4,0-15.6,1.6-21.9,4.8c-6.2,3.2-11.5,8.1-15.9,14.7l-2.6-14.4c-0.3-1.7-1.8-3-3.6-3h-22.5
		c-2,0-3.7,1.6-3.7,3.7v140.3c0,2,1.6,3.7,3.7,3.7h27.5c2,0,3.7-1.6,3.7-3.7v-77.8c0-12.4,2.9-21.7,8.6-27.9
		c5.7-6.1,14.5-9.2,26.3-9.2c10.4,0,18.2,3.8,23.3,11.3c5.1,7.5,7.7,19,7.7,34.3v69.3c0,2,1.6,3.7,3.7,3.7h27.5c2,0,3.7-1.6,3.7-3.7
		v-69.3c0-25.9-5.4-45.2-16.1-57.8C439.7,63.1,423.3,56.8,401.3,56.8z"/>
	<path class="st1" d="M929.9,58.9c-1.8,0-3.3,1.3-3.6,3l-1.4,7.5c-2.2-1.5-4.4-3.1-6.8-4.4c-11.9-6.6-25.3-9.9-40.2-9.9
		c-15,0-28.4,3.3-40.4,9.9c-12,6.6-21.3,15.7-28.1,27.3c-6.7,11.6-10.1,24.7-10.1,39.3c0,14.6,3.4,27.7,10.1,39.3
		c6.7,11.6,16.1,20.8,28.1,27.4c12,6.6,25.4,9.9,40.4,9.9c14.9,0,28.4-3.3,40.2-9.9c2.3-1.3,4.4-2.7,6.5-4.2l1.7,9.4
		c0.3,1.7,1.8,3,3.6,3h22.5c2,0,3.7-1.6,3.7-3.7v-71.2v-5.3V62.6c0-2-1.6-3.7-3.7-3.7H929.9z M915.7,154.9
		c-3.7,6.9-8.9,12.3-15.5,16.2c-6.6,3.9-14.1,5.9-22.3,5.9c-8.4,0-15.9-2-22.5-5.9c-6.6-3.9-11.8-9.3-15.6-16.2
		c-3.8-6.9-5.6-14.7-5.6-23.3c0-8.6,1.9-16.4,5.6-23.3c3.8-6.9,9-12.2,15.6-16.1c6.6-3.8,14.1-5.8,22.5-5.8c8.3,0,15.7,1.9,22.3,5.8
		c6.6,3.9,11.8,9.2,15.5,16.1c3.7,6.9,5.6,14.6,5.6,23.3C921.3,140.2,919.4,148,915.7,154.9z"/>
	<path class="st0" d="M622.6,48.2l27.6-11.8c1.4-0.6,2.2-1.9,2.2-3.4V11.7c0-2-1.6-3.7-3.7-3.7h-27.6c-2,0-3.7,1.6-3.7,3.7v33.2
		C617.5,47.5,620.1,49.3,622.6,48.2z"/>
	<path class="st1" d="M621.3,206.5h27.5c2,0,3.7-1.6,3.7-3.7V63.9c0-2.6-2.7-4.4-5.1-3.4l-27.5,11.8c-1.4,0.6-2.2,1.9-2.2,3.4v127.2
		C617.6,204.9,619.2,206.5,621.3,206.5z"/>
	<path class="st1" d="M761.4,130.6c-6.4-3.1-14.6-6.4-24.6-10c-6.3-2.1-11.2-3.9-14.7-5.4c-3.5-1.5-6.4-3.2-8.6-5.2
		c-2.3-2-3.4-4.3-3.4-7c0-4.6,2.1-8.3,6.2-10.9c4.1-2.6,8.8-4,14.1-4c6.3,0,11.6,0.4,15.9,1.2c4.3,0.8,8.1,2,11.4,3.5
		c2.5,1.2,5.2,2.7,8.2,4.5c1.8,1.1,4.2,0.4,5.2-1.5l10-19.7c0.9-1.7,0.2-3.9-1.5-4.9c-5.7-3.2-10.5-5.8-14.6-7.6
		c-4.8-2.2-9.9-3.9-15.4-5c-5.5-1.2-11.8-1.7-19.1-1.7c-9.8,0-19,1.8-27.4,5.5c-8.5,3.7-15.2,9-20.3,16c-5.1,7-7.6,15.3-7.6,24.7
		c0,7.8,2.3,14.4,7,19.9c4.7,5.5,10.3,9.9,16.8,13.2c6.5,3.3,14.7,7,24.7,10.9c6.1,2.3,10.9,4.3,14.4,5.8c3.5,1.6,6.3,3.3,8.6,5.3
		c3.8,3.3,4.3,7.1,1.8,11.5c-1.3,2.3-3.5,4.1-6,5.1c-3.8,1.5-8.4,2.2-13.8,2.2c-14.5,0-27.5-3.9-39.1-11.7c-1.8-1.2-4.3-0.7-5.3,1.2
		l-11.5,21.2c-0.9,1.7-0.4,3.8,1.2,4.8c7.9,5.2,15.8,9.1,23.5,11.6c8.6,2.8,19,4.2,31.1,4.2c10.1,0,19.4-1.7,28-4.9
		c8.5-3.3,15.4-8.2,20.6-14.8c5.2-6.6,7.8-14.6,7.8-24c0-8.5-2.3-15.5-7-21C773.3,138,767.8,133.7,761.4,130.6z"/>
	<path class="st1" d="M575.5,130.6c-6.4-3.1-14.6-6.4-24.6-10c-6.3-2.1-11.2-3.9-14.7-5.4c-3.5-1.5-6.4-3.2-8.6-5.2
		c-2.3-2-3.4-4.3-3.4-7c0-4.6,2.1-8.3,6.2-10.9c4.1-2.6,8.8-4,14.1-4c6.3,0,11.6,0.4,15.9,1.2c4.3,0.8,8.1,2,11.4,3.5
		c2.5,1.2,5.2,2.7,8.2,4.5c1.8,1.1,4.2,0.4,5.2-1.5l10-19.7c0.9-1.7,0.2-3.9-1.5-4.9c-5.7-3.2-10.5-5.8-14.6-7.6
		c-4.8-2.2-9.9-3.9-15.4-5c-5.5-1.2-11.8-1.7-19.1-1.7c-9.8,0-19,1.8-27.4,5.5c-8.5,3.7-15.2,9-20.3,16c-5.1,7-7.6,15.3-7.6,24.7
		c0,7.8,2.3,14.4,7,19.9c4.7,5.5,10.3,9.9,16.8,13.2c6.5,3.3,14.7,7,24.7,10.9c6.1,2.3,10.9,4.3,14.4,5.8c3.5,1.6,6.3,3.3,8.6,5.3
		c3.8,3.3,4.3,7.1,1.8,11.5c-1.3,2.3-3.5,4.1-6,5.1c-3.8,1.5-8.4,2.2-13.8,2.2c-14.5,0-27.5-3.9-39.1-11.7c-1.8-1.2-4.3-0.7-5.3,1.2
		l-11.5,21.2c-0.9,1.7-0.4,3.8,1.2,4.8c7.9,5.2,15.8,9.1,23.5,11.6c8.6,2.8,19,4.2,31.1,4.2c10.1,0,19.4-1.7,28-4.9
		c8.5-3.3,15.4-8.2,20.6-14.8c5.2-6.6,7.8-14.6,7.8-24c0-8.5-2.3-15.5-7-21C587.3,138,581.8,133.7,575.5,130.6z"/>
</g>
</svg>
